<svg width="400" height="55" viewBox="0 0 400 55" fill="none" xmlns="http://www.w3.org/2000/svg">
<path d="M52.1088 3.65722V34.8544H67.1049L66.1607 42.058H43V3.65722H52.1088Z" fill="#565A5D"/>
<path d="M94.2051 33.5245C94.2051 34.6327 94.3532 35.4454 94.6494 35.9626C94.9827 36.4798 95.5011 36.8677 96.2046 37.1263L94.3717 42.8338C92.5574 42.686 91.0763 42.2981 89.9284 41.6701C88.7806 41.0051 87.8919 39.9708 87.2625 38.567C85.337 41.5223 82.3748 43 78.3759 43C75.4507 43 73.118 42.1503 71.3777 40.451C69.6374 38.7517 68.7672 36.5352 68.7672 33.8015C68.7672 30.5876 69.9521 28.131 72.3219 26.4317C74.6916 24.7324 78.1167 23.8827 82.597 23.8827H85.5962V22.6082C85.5962 20.872 85.2259 19.6899 84.4854 19.0619C83.7448 18.3969 82.4489 18.0644 80.5975 18.0644C79.6348 18.0644 78.4684 18.2122 77.0984 18.5077C75.7284 18.7663 74.3213 19.1357 72.8773 19.616L70.8778 13.8531C72.7292 13.1512 74.6176 12.6155 76.543 12.2461C78.5055 11.8767 80.3198 11.692 81.986 11.692C86.2072 11.692 89.299 12.5601 91.2614 14.2964C93.2239 16.0326 94.2051 18.637 94.2051 22.1095V33.5245ZM80.9308 36.7384C82.9302 36.7384 84.4854 35.7964 85.5962 33.9124V28.7036H83.4301C81.4306 28.7036 79.931 29.0545 78.9313 29.7564C77.9686 30.4583 77.4872 31.5481 77.4872 33.0258C77.4872 34.2079 77.7834 35.1314 78.3759 35.7964C79.0053 36.4244 79.857 36.7384 80.9308 36.7384Z" fill="#565A5D"/>
<path d="M117.191 11.8028C118.265 11.8028 119.246 11.9321 120.135 12.1907L118.746 20.6688C117.635 20.4102 116.747 20.2809 116.08 20.2809C114.34 20.2809 113.007 20.8905 112.081 22.1095C111.192 23.2917 110.489 25.0833 109.971 27.4845V42.058H101.195V12.634H108.86L109.582 18.3415C110.248 16.3097 111.248 14.7212 112.581 13.576C113.951 12.3939 115.488 11.8028 117.191 11.8028Z" fill="#565A5D"/>
<path d="M144.973 33.5245C144.973 34.6327 145.121 35.4454 145.418 35.9626C145.751 36.4798 146.269 36.8677 146.973 37.1263L145.14 42.8338C143.326 42.686 141.844 42.2981 140.697 41.6701C139.549 41.0051 138.66 39.9708 138.031 38.567C136.105 41.5223 133.143 43 129.144 43C126.219 43 123.886 42.1503 122.146 40.451C120.406 38.7517 119.535 36.5352 119.535 33.8015C119.535 30.5876 120.72 28.131 123.09 26.4317C125.46 24.7324 128.885 23.8827 133.365 23.8827H136.364V22.6082C136.364 20.872 135.994 19.6899 135.254 19.0619C134.513 18.3969 133.217 18.0644 131.366 18.0644C130.403 18.0644 129.237 18.2122 127.867 18.5077C126.497 18.7663 125.09 19.1357 123.645 19.616L121.646 13.8531C123.497 13.1512 125.386 12.6155 127.311 12.2461C129.274 11.8767 131.088 11.692 132.754 11.692C136.975 11.692 140.067 12.5601 142.03 14.2964C143.992 16.0326 144.973 18.637 144.973 22.1095V33.5245ZM131.699 36.7384C133.698 36.7384 135.254 35.7964 136.364 33.9124V28.7036H134.198C132.199 28.7036 130.699 29.0545 129.699 29.7564C128.737 30.4583 128.255 31.5481 128.255 33.0258C128.255 34.2079 128.552 35.1314 129.144 35.7964C129.773 36.4244 130.625 36.7384 131.699 36.7384Z" fill="#565A5D"/>
<path d="M176.532 12.634L167.257 42.058H156.87L147.373 12.634H156.926L162.147 35.4085L167.59 12.634H176.532Z" fill="#565A5D"/>
<path d="M204.907 26.7642C204.907 27.9832 204.851 29.0361 204.74 29.9227H186.467C186.764 32.3978 187.467 34.134 188.578 35.1314C189.689 36.1289 191.225 36.6276 193.188 36.6276C194.373 36.6276 195.521 36.4244 196.631 36.018C197.742 35.5747 198.946 34.9098 200.242 34.0232L203.852 38.8995C200.408 41.6332 196.576 43 192.355 43C187.578 43 183.912 41.5962 181.358 38.7887C178.803 35.9811 177.525 32.2131 177.525 27.4845C177.525 24.4923 178.062 21.814 179.136 19.4497C180.21 17.0485 181.783 15.1645 183.857 13.7977C185.93 12.3939 188.411 11.692 191.299 11.692C195.558 11.692 198.89 13.0219 201.297 15.6817C203.704 18.3415 204.907 22.0357 204.907 26.7642ZM196.298 24.2706C196.224 19.7637 194.632 17.5103 191.522 17.5103C190.003 17.5103 188.819 18.0644 187.967 19.1727C187.152 20.2809 186.652 22.1095 186.467 24.6585H196.298V24.2706Z" fill="#565A5D"/>
<path d="M217.668 43C215.113 43 213.114 42.2796 211.67 40.8389C210.263 39.3612 209.559 37.2741 209.559 34.5773V0.942011L218.335 0V34.2448C218.335 35.4639 218.834 36.0734 219.834 36.0734C220.353 36.0734 220.834 35.9811 221.278 35.7964L223 42.0026C221.408 42.6675 219.631 43 217.668 43Z" fill="#565A5D"/>
<path d="M238.689 27.6962H235.127V42.5535H226V3.70031H238.633C243.902 3.70031 247.853 4.67211 250.487 6.6157C253.158 8.55929 254.494 11.5308 254.494 15.5301C254.494 18.0343 253.9 20.1274 252.713 21.8094C251.526 23.454 249.652 24.8556 247.092 26.0143L256.887 42.5535H246.591L238.689 27.6962ZM235.127 21.3609H238.967C241.008 21.3609 242.529 20.8936 243.531 19.9592C244.569 19.0248 245.089 17.5484 245.089 15.5301C245.089 13.6612 244.532 12.297 243.419 11.4373C242.343 10.5776 240.674 10.1478 238.411 10.1478H235.127V21.3609Z" fill="url(#paint0_linear_6_2)"/>
<path d="M285.133 27.0795C285.133 28.3129 285.077 29.3782 284.966 30.2752H266.656C266.953 32.7795 267.658 34.5362 268.771 35.5454C269.884 36.5545 271.424 37.0591 273.39 37.0591C274.578 37.0591 275.728 36.8535 276.841 36.4424C277.954 35.9939 279.16 35.3211 280.458 34.4241L284.076 39.3578C280.625 42.1237 276.785 43.5066 272.556 43.5066C267.769 43.5066 264.096 42.0863 261.536 39.2457C258.976 36.405 257.696 32.5926 257.696 27.8084C257.696 24.7808 258.234 22.071 259.31 19.6789C260.386 17.2494 261.963 15.3432 264.041 13.9602C266.118 12.5399 268.604 11.8298 271.498 11.8298C275.765 11.8298 279.104 13.1753 281.516 15.8665C283.927 18.5576 285.133 22.2953 285.133 27.0795ZM276.507 24.5566C276.433 19.9966 274.837 17.7166 271.721 17.7166C270.2 17.7166 269.012 18.2773 268.159 19.3986C267.343 20.5199 266.842 22.37 266.656 24.949H276.507V24.5566Z" fill="url(#paint1_linear_6_2)"/>
<path d="M316.563 0.95311V42.5535H308.772L308.327 39.0775C306.249 42.0302 303.448 43.5066 299.923 43.5066C296.25 43.5066 293.449 42.0863 291.52 39.2457C289.627 36.405 288.681 32.5178 288.681 27.5841C288.681 24.5566 289.182 21.8468 290.184 19.4546C291.186 17.0625 292.596 15.1937 294.414 13.8481C296.269 12.5025 298.383 11.8298 300.758 11.8298C303.578 11.8298 305.915 12.7642 307.77 14.633V0L316.563 0.95311ZM302.65 37.0031C304.691 37.0031 306.397 35.8818 307.77 33.6391V20.8002C307.065 19.9405 306.342 19.3051 305.6 18.894C304.895 18.4828 304.079 18.2773 303.151 18.2773C301.519 18.2773 300.22 19.0435 299.255 20.5759C298.291 22.1084 297.808 24.4631 297.808 27.6402C297.808 31.1162 298.216 33.5457 299.033 34.9286C299.886 36.3116 301.092 37.0031 302.65 37.0031Z" fill="url(#paint2_linear_6_2)"/>
<path d="M333.85 11.8298C335.964 11.8298 337.949 12.1475 339.804 12.7829C341.659 13.4183 343.292 14.3153 344.702 15.474L341.474 20.4638C339.062 18.9314 336.632 18.1651 334.183 18.1651C333.033 18.1651 332.143 18.3707 331.512 18.7819C330.918 19.1556 330.622 19.6976 330.622 20.4077C330.622 20.9684 330.752 21.4356 331.011 21.8094C331.308 22.1458 331.883 22.5008 332.736 22.8746C333.59 23.2484 334.907 23.6969 336.688 24.2202C339.767 25.1172 342.049 26.2946 343.533 27.7523C345.054 29.1726 345.815 31.1536 345.815 33.6952C345.815 35.7136 345.24 37.4703 344.09 38.9653C342.939 40.423 341.363 41.5443 339.359 42.3293C337.356 43.1142 335.13 43.5066 332.681 43.5066C330.195 43.5066 327.876 43.1142 325.724 42.3293C323.609 41.5443 321.81 40.4604 320.326 39.0775L324.611 34.2559C327.097 36.1995 329.713 37.1713 332.458 37.1713C333.794 37.1713 334.833 36.9283 335.575 36.4424C336.354 35.9565 336.743 35.265 336.743 34.368C336.743 33.6578 336.595 33.0972 336.298 32.686C336.001 32.2749 335.426 31.9011 334.573 31.5647C333.72 31.191 332.365 30.7424 330.51 30.2192C327.579 29.3595 325.39 28.1634 323.943 26.631C322.496 25.0985 321.773 23.1923 321.773 20.9123C321.773 19.193 322.255 17.6606 323.22 16.315C324.222 14.932 325.631 13.8481 327.449 13.0632C329.305 12.2409 331.438 11.8298 333.85 11.8298Z" fill="url(#paint3_linear_6_2)"/>
<path d="M365.618 42.6096C364.431 46.4594 362.483 49.4122 359.775 51.4679C357.104 53.561 353.505 54.7384 348.978 55L348.032 48.7768C350.852 48.403 352.93 47.7676 354.265 46.8705C355.638 45.9735 356.733 44.5345 357.549 42.5535H354.544L345.528 12.7829H354.877L360.164 36.8909L365.952 12.7829H375.024L365.618 42.6096Z" fill="url(#paint4_linear_6_2)"/>
<path d="M388.035 11.8298C390.149 11.8298 392.134 12.1475 393.99 12.7829C395.845 13.4183 397.477 14.3153 398.887 15.474L395.659 20.4638C393.247 18.9314 390.817 18.1651 388.369 18.1651C387.218 18.1651 386.328 18.3707 385.697 18.7819C385.104 19.1556 384.807 19.6976 384.807 20.4077C384.807 20.9684 384.937 21.4356 385.196 21.8094C385.493 22.1458 386.068 22.5008 386.922 22.8746C387.775 23.2484 389.092 23.6969 390.873 24.2202C393.952 25.1172 396.234 26.2946 397.718 27.7523C399.239 29.1726 400 31.1536 400 33.6952C400 35.7136 399.425 37.4703 398.275 38.9653C397.125 40.423 395.548 41.5443 393.544 42.3293C391.541 43.1142 389.315 43.5066 386.866 43.5066C384.38 43.5066 382.061 43.1142 379.909 42.3293C377.795 41.5443 375.995 40.4604 374.511 39.0775L378.796 34.2559C381.282 36.1995 383.898 37.1713 386.643 37.1713C387.979 37.1713 389.018 36.9283 389.76 36.4424C390.539 35.9565 390.929 35.265 390.929 34.368C390.929 33.6578 390.78 33.0972 390.483 32.686C390.187 32.2749 389.612 31.9011 388.758 31.5647C387.905 31.191 386.551 30.7424 384.696 30.2192C381.764 29.3595 379.575 28.1634 378.129 26.631C376.682 25.0985 375.958 23.1923 375.958 20.9123C375.958 19.193 376.44 17.6606 377.405 16.315C378.407 14.932 379.817 13.8481 381.635 13.0632C383.49 12.2409 385.623 11.8298 388.035 11.8298Z" fill="url(#paint5_linear_6_2)"/>
<path d="M38.2093 23.9719C38.2093 34.5231 29.6558 43.0765 19.1046 43.0765C8.55344 43.0765 0 34.5231 0 23.9719C0 13.4207 8.55344 4.86728 19.1046 4.86728C29.6558 4.86728 38.2093 13.4207 38.2093 23.9719Z" fill="url(#paint6_linear_6_2)"/>
<defs>
<linearGradient id="paint0_linear_6_2" x1="401.201" y1="23.8651" x2="226.64" y2="23.8651" gradientUnits="userSpaceOnUse">
<stop stop-color="#FD5D02"/>
<stop offset="1" stop-color="#FAB911"/>
</linearGradient>
<linearGradient id="paint1_linear_6_2" x1="401.201" y1="23.8651" x2="226.64" y2="23.8651" gradientUnits="userSpaceOnUse">
<stop stop-color="#FD5D02"/>
<stop offset="1" stop-color="#FAB911"/>
</linearGradient>
<linearGradient id="paint2_linear_6_2" x1="401.201" y1="23.8651" x2="226.64" y2="23.8651" gradientUnits="userSpaceOnUse">
<stop stop-color="#FD5D02"/>
<stop offset="1" stop-color="#FAB911"/>
</linearGradient>
<linearGradient id="paint3_linear_6_2" x1="401.201" y1="23.8651" x2="226.64" y2="23.8651" gradientUnits="userSpaceOnUse">
<stop stop-color="#FD5D02"/>
<stop offset="1" stop-color="#FAB911"/>
</linearGradient>
<linearGradient id="paint4_linear_6_2" x1="401.201" y1="23.8651" x2="226.64" y2="23.8651" gradientUnits="userSpaceOnUse">
<stop stop-color="#FD5D02"/>
<stop offset="1" stop-color="#FAB911"/>
</linearGradient>
<linearGradient id="paint5_linear_6_2" x1="401.201" y1="23.8651" x2="226.64" y2="23.8651" gradientUnits="userSpaceOnUse">
<stop stop-color="#FD5D02"/>
<stop offset="1" stop-color="#FAB911"/>
</linearGradient>
<linearGradient id="paint6_linear_6_2" x1="6.36821" y1="11.7575" x2="25.264" y2="30.2357" gradientUnits="userSpaceOnUse">
<stop stop-color="#FD5D02"/>
<stop offset="1" stop-color="#FAB911"/>
</linearGradient>
</defs>
</svg>
